<mxfile host="www.draw.io" modified="2019-11-23T14:43:58.369Z" agent="Mozilla/5.0 (Windows NT 10.0; Win64; x64; rv:70.0) Gecko/20100101 Firefox/70.0" etag="kLwWvg8OmessRoIoCZC4" version="12.2.9" type="github" pages="1">
  <diagram id="0RAHFB9DxQQNoqs_koFl" name="Page-1">
    <mxGraphModel dx="1205" dy="680" grid="1" gridSize="10" guides="1" tooltips="1" connect="1" arrows="1" fold="1" page="1" pageScale="1" pageWidth="827" pageHeight="1169" math="0" shadow="0">
      <root>
        <mxCell id="0"/>
        <mxCell id="1" parent="0"/>
        <mxCell id="qk6un8bk32dUB89qjppy-118" value="Violation Manager" style="shape=umlLifeline;perimeter=lifelinePerimeter;whiteSpace=wrap;html=1;container=1;collapsible=0;recursiveResize=0;outlineConnect=0;rounded=1;shadow=0;comic=0;labelBackgroundColor=none;strokeWidth=1;fontFamily=Verdana;fontSize=11;align=center;" vertex="1" parent="1">
          <mxGeometry x="1137" y="80" width="100" height="1000" as="geometry"/>
        </mxCell>
        <mxCell id="qk6un8bk32dUB89qjppy-119" value="" style="html=1;points=[];perimeter=orthogonalPerimeter;rounded=0;shadow=0;comic=0;labelBackgroundColor=none;strokeColor=#000000;strokeWidth=1;fillColor=#FFFFFF;fontFamily=Verdana;fontSize=11;fontColor=#000000;align=center;" vertex="1" parent="qk6un8bk32dUB89qjppy-118">
          <mxGeometry x="46" y="610" width="10" height="190" as="geometry"/>
        </mxCell>
        <mxCell id="qk6un8bk32dUB89qjppy-1" value="Mobile App" style="shape=umlLifeline;perimeter=lifelinePerimeter;whiteSpace=wrap;html=1;container=1;collapsible=0;recursiveResize=0;outlineConnect=0;rounded=1;shadow=0;comic=0;labelBackgroundColor=none;strokeWidth=1;fontFamily=Verdana;fontSize=12;align=center;" vertex="1" parent="1">
          <mxGeometry x="240" y="80" width="100" height="1090" as="geometry"/>
        </mxCell>
        <mxCell id="qk6un8bk32dUB89qjppy-2" value="" style="html=1;points=[];perimeter=orthogonalPerimeter;rounded=0;shadow=0;comic=0;labelBackgroundColor=none;strokeWidth=1;fontFamily=Verdana;fontSize=11;align=center;" vertex="1" parent="qk6un8bk32dUB89qjppy-1">
          <mxGeometry x="45" y="103" width="10" height="117" as="geometry"/>
        </mxCell>
        <mxCell id="qk6un8bk32dUB89qjppy-69" value="" style="html=1;points=[];perimeter=orthogonalPerimeter;rounded=0;shadow=0;comic=0;labelBackgroundColor=none;strokeWidth=1;fontFamily=Verdana;fontSize=11;align=center;" vertex="1" parent="qk6un8bk32dUB89qjppy-1">
          <mxGeometry x="45" y="290" width="10" height="130" as="geometry"/>
        </mxCell>
        <mxCell id="qk6un8bk32dUB89qjppy-160" value="" style="html=1;points=[];perimeter=orthogonalPerimeter;rounded=0;shadow=0;comic=0;labelBackgroundColor=none;strokeWidth=1;fontFamily=Verdana;fontSize=11;align=center;direction=west;" vertex="1" parent="qk6un8bk32dUB89qjppy-1">
          <mxGeometry x="45" y="917" width="10" height="25" as="geometry"/>
        </mxCell>
        <mxCell id="qk6un8bk32dUB89qjppy-6" value="Device Data Manager " style="shape=umlLifeline;perimeter=lifelinePerimeter;whiteSpace=wrap;html=1;container=1;collapsible=0;recursiveResize=0;outlineConnect=0;rounded=1;shadow=0;comic=0;labelBackgroundColor=none;strokeWidth=1;fontFamily=Verdana;fontSize=12;align=center;" vertex="1" parent="1">
          <mxGeometry x="562" y="80" width="100" height="1000" as="geometry"/>
        </mxCell>
        <mxCell id="qk6un8bk32dUB89qjppy-17" value="" style="html=1;points=[];perimeter=orthogonalPerimeter;rounded=0;shadow=0;comic=0;labelBackgroundColor=none;strokeWidth=1;fontFamily=Verdana;fontSize=11;align=center;" vertex="1" parent="qk6un8bk32dUB89qjppy-6">
          <mxGeometry x="45" y="106" width="10" height="40" as="geometry"/>
        </mxCell>
        <mxCell id="qk6un8bk32dUB89qjppy-52" value="returnPosition()" style="html=1;verticalAlign=bottom;endArrow=open;dashed=1;endSize=8;labelBackgroundColor=none;fontFamily=Verdana;fontSize=11;edgeStyle=elbowEdgeStyle;elbow=vertical;" edge="1" parent="qk6un8bk32dUB89qjppy-6">
          <mxGeometry relative="1" as="geometry">
            <mxPoint x="-90" y="141" as="targetPoint"/>
            <Array as="points">
              <mxPoint x="-10" y="141"/>
              <mxPoint x="20" y="141"/>
            </Array>
            <mxPoint x="45" y="141" as="sourcePoint"/>
          </mxGeometry>
        </mxCell>
        <mxCell id="qk6un8bk32dUB89qjppy-53" value="retrivePosition()" style="html=1;verticalAlign=bottom;endArrow=block;fontSize=11;" edge="1" parent="qk6un8bk32dUB89qjppy-6">
          <mxGeometry width="80" relative="1" as="geometry">
            <mxPoint x="-90" y="112" as="sourcePoint"/>
            <mxPoint x="42.5" y="111.99999999999989" as="targetPoint"/>
          </mxGeometry>
        </mxCell>
        <mxCell id="qk6un8bk32dUB89qjppy-7" value="MapsAPI" style="shape=umlLifeline;perimeter=lifelinePerimeter;whiteSpace=wrap;html=1;container=1;collapsible=0;recursiveResize=0;outlineConnect=0;rounded=1;shadow=0;comic=0;labelBackgroundColor=none;strokeWidth=1;fontFamily=Verdana;fontSize=12;align=center;" vertex="1" parent="1">
          <mxGeometry x="702" y="80" width="100" height="1000" as="geometry"/>
        </mxCell>
        <mxCell id="qk6un8bk32dUB89qjppy-8" value="" style="html=1;points=[];perimeter=orthogonalPerimeter;rounded=0;shadow=0;comic=0;labelBackgroundColor=none;strokeWidth=1;fontFamily=Verdana;fontSize=11;align=center;" vertex="1" parent="qk6un8bk32dUB89qjppy-7">
          <mxGeometry x="45" y="107" width="10" height="40" as="geometry"/>
        </mxCell>
        <mxCell id="qk6un8bk32dUB89qjppy-9" value="Notification Manager" style="shape=umlLifeline;perimeter=lifelinePerimeter;whiteSpace=wrap;html=1;container=1;collapsible=0;recursiveResize=0;outlineConnect=0;rounded=1;shadow=0;comic=0;labelBackgroundColor=none;strokeWidth=1;fontFamily=Verdana;fontSize=11;align=center;" vertex="1" parent="1">
          <mxGeometry x="992" y="80" width="100" height="1000" as="geometry"/>
        </mxCell>
        <mxCell id="qk6un8bk32dUB89qjppy-66" value="" style="html=1;points=[];perimeter=orthogonalPerimeter;rounded=0;shadow=0;comic=0;labelBackgroundColor=none;strokeWidth=1;fontFamily=Verdana;fontSize=11;align=center;" vertex="1" parent="qk6un8bk32dUB89qjppy-9">
          <mxGeometry x="45" y="265" width="10" height="85" as="geometry"/>
        </mxCell>
        <mxCell id="qk6un8bk32dUB89qjppy-110" value="" style="html=1;points=[];perimeter=orthogonalPerimeter;rounded=0;shadow=0;comic=0;labelBackgroundColor=none;strokeWidth=1;fontFamily=Verdana;fontSize=11;align=center;" vertex="1" parent="qk6un8bk32dUB89qjppy-9">
          <mxGeometry x="45" y="560" width="10" height="70" as="geometry"/>
        </mxCell>
        <mxCell id="qk6un8bk32dUB89qjppy-14" value="&lt;b&gt;AM&lt;/b&gt;: Actor" style="shape=umlLifeline;perimeter=lifelinePerimeter;whiteSpace=wrap;html=1;container=1;collapsible=0;recursiveResize=0;outlineConnect=0;rounded=1;shadow=0;comic=0;labelBackgroundColor=none;strokeWidth=1;fontFamily=Verdana;fontSize=12;align=center;" vertex="1" parent="1">
          <mxGeometry x="60" y="80" width="105" height="1100" as="geometry"/>
        </mxCell>
        <mxCell id="qk6un8bk32dUB89qjppy-15" value="" style="html=1;points=[];perimeter=orthogonalPerimeter;rounded=0;shadow=0;comic=0;labelBackgroundColor=none;strokeWidth=1;fontFamily=Verdana;fontSize=11;align=center;" vertex="1" parent="qk6un8bk32dUB89qjppy-14">
          <mxGeometry x="48" y="103" width="10" height="117" as="geometry"/>
        </mxCell>
        <mxCell id="qk6un8bk32dUB89qjppy-16" value="retrivePosition()" style="html=1;verticalAlign=bottom;endArrow=block;entryX=-0.272;entryY=0.407;entryDx=0;entryDy=0;entryPerimeter=0;fontSize=11;" edge="1" parent="qk6un8bk32dUB89qjppy-14">
          <mxGeometry width="80" relative="1" as="geometry">
            <mxPoint x="60" y="112" as="sourcePoint"/>
            <mxPoint x="222.27999999999997" y="112.15899999999999" as="targetPoint"/>
          </mxGeometry>
        </mxCell>
        <mxCell id="qk6un8bk32dUB89qjppy-70" value="" style="html=1;points=[];perimeter=orthogonalPerimeter;rounded=0;shadow=0;comic=0;labelBackgroundColor=none;strokeWidth=1;fontFamily=Verdana;fontSize=11;align=center;" vertex="1" parent="qk6un8bk32dUB89qjppy-14">
          <mxGeometry x="48" y="328" width="10" height="20" as="geometry"/>
        </mxCell>
        <mxCell id="qk6un8bk32dUB89qjppy-155" value="" style="html=1;points=[];perimeter=orthogonalPerimeter;rounded=0;shadow=0;comic=0;labelBackgroundColor=none;strokeWidth=1;fontFamily=Verdana;fontSize=11;align=center;" vertex="1" parent="qk6un8bk32dUB89qjppy-14">
          <mxGeometry x="48" y="917" width="10" height="22" as="geometry"/>
        </mxCell>
        <mxCell id="qk6un8bk32dUB89qjppy-156" value="btnClkNotAViolation()" style="html=1;verticalAlign=bottom;endArrow=block;entryX=-0.272;entryY=0.407;entryDx=0;entryDy=0;entryPerimeter=0;fontSize=11;" edge="1" parent="qk6un8bk32dUB89qjppy-14">
          <mxGeometry width="80" relative="1" as="geometry">
            <mxPoint x="60.99999999999977" y="928.5" as="sourcePoint"/>
            <mxPoint x="223.27999999999997" y="928.6590000000001" as="targetPoint"/>
          </mxGeometry>
        </mxCell>
        <mxCell id="qk6un8bk32dUB89qjppy-18" value="returnPosition()" style="html=1;verticalAlign=bottom;endArrow=open;dashed=1;endSize=8;labelBackgroundColor=none;fontFamily=Verdana;fontSize=11;edgeStyle=elbowEdgeStyle;elbow=vertical;" edge="1" parent="1">
          <mxGeometry relative="1" as="geometry">
            <mxPoint x="617" y="221" as="targetPoint"/>
            <Array as="points">
              <mxPoint x="692" y="221"/>
              <mxPoint x="722" y="221"/>
            </Array>
            <mxPoint x="747" y="221" as="sourcePoint"/>
          </mxGeometry>
        </mxCell>
        <mxCell id="qk6un8bk32dUB89qjppy-21" value="AM already logged" style="shape=note;whiteSpace=wrap;html=1;size=14;verticalAlign=top;align=left;spacingTop=-6;rounded=0;shadow=0;comic=0;labelBackgroundColor=none;strokeWidth=1;fontFamily=Verdana;fontSize=12" vertex="1" parent="1">
          <mxGeometry x="65" y="30" width="100" height="35" as="geometry"/>
        </mxCell>
        <mxCell id="qk6un8bk32dUB89qjppy-26" value="retrivePosition()" style="html=1;verticalAlign=bottom;endArrow=block;fontSize=11;entryX=-0.082;entryY=0.144;entryDx=0;entryDy=0;entryPerimeter=0;" edge="1" parent="1" target="qk6un8bk32dUB89qjppy-58">
          <mxGeometry width="80" relative="1" as="geometry">
            <mxPoint x="295" y="192" as="sourcePoint"/>
            <mxPoint x="570" y="192" as="targetPoint"/>
          </mxGeometry>
        </mxCell>
        <mxCell id="qk6un8bk32dUB89qjppy-27" value="retrivePosition()" style="html=1;verticalAlign=bottom;endArrow=block;fontSize=11;" edge="1" parent="1">
          <mxGeometry width="80" relative="1" as="geometry">
            <mxPoint x="619.5" y="192" as="sourcePoint"/>
            <mxPoint x="744.5" y="192" as="targetPoint"/>
          </mxGeometry>
        </mxCell>
        <mxCell id="qk6un8bk32dUB89qjppy-28" value="showAMLocation(position)" style="html=1;verticalAlign=bottom;endArrow=open;dashed=1;endSize=8;entryX=1.3;entryY=0.625;entryDx=0;entryDy=0;entryPerimeter=0;fontSize=11;exitX=-0.082;exitY=0.909;exitDx=0;exitDy=0;exitPerimeter=0;" edge="1" parent="1" source="qk6un8bk32dUB89qjppy-58">
          <mxGeometry relative="1" as="geometry">
            <mxPoint x="570" y="222" as="sourcePoint"/>
            <mxPoint x="297.9999999999998" y="221.875" as="targetPoint"/>
          </mxGeometry>
        </mxCell>
        <mxCell id="qk6un8bk32dUB89qjppy-34" value="Statistics Data Manager" style="shape=umlLifeline;perimeter=lifelinePerimeter;whiteSpace=wrap;html=1;container=1;collapsible=0;recursiveResize=0;outlineConnect=0;rounded=1;shadow=0;comic=0;labelBackgroundColor=none;strokeWidth=1;fontFamily=Verdana;fontSize=11;align=center;" vertex="1" parent="1">
          <mxGeometry x="1420" y="80" width="100" height="1000" as="geometry"/>
        </mxCell>
        <mxCell id="qk6un8bk32dUB89qjppy-147" value="" style="html=1;points=[];perimeter=orthogonalPerimeter;rounded=0;shadow=0;comic=0;labelBackgroundColor=none;strokeWidth=1;fontFamily=Verdana;fontSize=11;align=center;" vertex="1" parent="qk6un8bk32dUB89qjppy-34">
          <mxGeometry x="45" y="835" width="10" height="40" as="geometry"/>
        </mxCell>
        <mxCell id="qk6un8bk32dUB89qjppy-40" value="updateStatistics(data)" style="html=1;verticalAlign=bottom;endArrow=open;dashed=1;endSize=8;fontSize=11;" edge="1" parent="1">
          <mxGeometry relative="1" as="geometry">
            <mxPoint x="1459" y="950" as="sourcePoint"/>
            <mxPoint x="1338" y="950" as="targetPoint"/>
          </mxGeometry>
        </mxCell>
        <mxCell id="qk6un8bk32dUB89qjppy-44" value="Availability Status Manager " style="shape=umlLifeline;perimeter=lifelinePerimeter;whiteSpace=wrap;html=1;container=1;collapsible=0;recursiveResize=0;outlineConnect=0;rounded=1;shadow=0;comic=0;labelBackgroundColor=none;strokeWidth=1;fontFamily=Verdana;fontSize=11;align=center;" vertex="1" parent="1">
          <mxGeometry x="842" y="80" width="117" height="1000" as="geometry"/>
        </mxCell>
        <mxCell id="qk6un8bk32dUB89qjppy-60" value="" style="html=1;points=[];perimeter=orthogonalPerimeter;rounded=0;shadow=0;comic=0;labelBackgroundColor=none;strokeWidth=1;fontFamily=Verdana;fontSize=11;align=center;" vertex="1" parent="qk6un8bk32dUB89qjppy-44">
          <mxGeometry x="53.5" y="178" width="10" height="40" as="geometry"/>
        </mxCell>
        <mxCell id="qk6un8bk32dUB89qjppy-96" value="" style="html=1;points=[];perimeter=orthogonalPerimeter;rounded=0;shadow=0;comic=0;labelBackgroundColor=none;strokeWidth=1;fontFamily=Verdana;fontSize=11;align=center;" vertex="1" parent="qk6un8bk32dUB89qjppy-44">
          <mxGeometry x="53.5" y="375" width="10" height="40" as="geometry"/>
        </mxCell>
        <mxCell id="qk6un8bk32dUB89qjppy-46" value="Customer Control Activity" style="shape=umlLifeline;perimeter=lifelinePerimeter;whiteSpace=wrap;html=1;container=1;collapsible=0;recursiveResize=0;outlineConnect=0;rounded=1;shadow=0;comic=0;labelBackgroundColor=none;strokeWidth=1;fontFamily=Verdana;fontSize=12;align=center;size=40;" vertex="1" parent="1">
          <mxGeometry x="412" y="80" width="100" height="1000" as="geometry"/>
        </mxCell>
        <mxCell id="qk6un8bk32dUB89qjppy-57" value="" style="html=1;points=[];perimeter=orthogonalPerimeter;rounded=0;shadow=0;comic=0;labelBackgroundColor=none;strokeWidth=1;fontFamily=Verdana;fontSize=11;align=center;" vertex="1" parent="qk6un8bk32dUB89qjppy-46">
          <mxGeometry x="45" y="178" width="10" height="40" as="geometry"/>
        </mxCell>
        <mxCell id="qk6un8bk32dUB89qjppy-58" value="" style="html=1;points=[];perimeter=orthogonalPerimeter;rounded=0;shadow=0;comic=0;labelBackgroundColor=none;strokeWidth=1;fontFamily=Verdana;fontSize=11;align=center;" vertex="1" parent="qk6un8bk32dUB89qjppy-46">
          <mxGeometry x="45" y="106" width="10" height="40" as="geometry"/>
        </mxCell>
        <mxCell id="qk6un8bk32dUB89qjppy-67" value="" style="html=1;points=[];perimeter=orthogonalPerimeter;rounded=0;shadow=0;comic=0;labelBackgroundColor=none;strokeWidth=1;fontFamily=Verdana;fontSize=11;align=center;" vertex="1" parent="qk6un8bk32dUB89qjppy-46">
          <mxGeometry x="45" y="290" width="10" height="128" as="geometry"/>
        </mxCell>
        <mxCell id="qk6un8bk32dUB89qjppy-109" value="" style="html=1;points=[];perimeter=orthogonalPerimeter;rounded=0;shadow=0;comic=0;labelBackgroundColor=none;strokeWidth=1;fontFamily=Verdana;fontSize=11;align=center;" vertex="1" parent="qk6un8bk32dUB89qjppy-46">
          <mxGeometry x="45" y="560" width="10" height="300" as="geometry"/>
        </mxCell>
        <mxCell id="qk6un8bk32dUB89qjppy-56" value="setAvailableStatus()" style="html=1;verticalAlign=bottom;endArrow=block;entryX=-0.272;entryY=0.407;entryDx=0;entryDy=0;entryPerimeter=0;fontSize=11;" edge="1" parent="1">
          <mxGeometry width="80" relative="1" as="geometry">
            <mxPoint x="119" y="264" as="sourcePoint"/>
            <mxPoint x="281.28" y="264.159" as="targetPoint"/>
          </mxGeometry>
        </mxCell>
        <mxCell id="qk6un8bk32dUB89qjppy-59" value="setAvailableStatus(true)" style="html=1;verticalAlign=bottom;endArrow=block;fontSize=11;entryX=-0.333;entryY=0.146;entryDx=0;entryDy=0;entryPerimeter=0;" edge="1" parent="1" target="qk6un8bk32dUB89qjppy-57">
          <mxGeometry x="0.0476" width="80" relative="1" as="geometry">
            <mxPoint x="297" y="264" as="sourcePoint"/>
            <mxPoint x="440" y="220" as="targetPoint"/>
            <mxPoint as="offset"/>
          </mxGeometry>
        </mxCell>
        <mxCell id="qk6un8bk32dUB89qjppy-61" value="setAvailableStatus(true)" style="html=1;verticalAlign=bottom;endArrow=block;fontSize=11;" edge="1" parent="1">
          <mxGeometry x="0.0476" width="80" relative="1" as="geometry">
            <mxPoint x="470.5" y="263" as="sourcePoint"/>
            <mxPoint x="892" y="263" as="targetPoint"/>
            <mxPoint as="offset"/>
          </mxGeometry>
        </mxCell>
        <mxCell id="qk6un8bk32dUB89qjppy-62" value="statusSetasAvailable()" style="html=1;verticalAlign=bottom;endArrow=open;dashed=1;endSize=8;entryX=1.5;entryY=0.8;entryDx=0;entryDy=0;entryPerimeter=0;fontSize=11;" edge="1" parent="1">
          <mxGeometry relative="1" as="geometry">
            <mxPoint x="892" y="293" as="sourcePoint"/>
            <mxPoint x="472" y="293" as="targetPoint"/>
          </mxGeometry>
        </mxCell>
        <mxCell id="qk6un8bk32dUB89qjppy-63" value="showAMasAvailable()" style="html=1;verticalAlign=bottom;endArrow=open;dashed=1;endSize=8;entryX=1.5;entryY=0.8;entryDx=0;entryDy=0;entryPerimeter=0;fontSize=11;exitX=-0.333;exitY=0.875;exitDx=0;exitDy=0;exitPerimeter=0;" edge="1" parent="1" source="qk6un8bk32dUB89qjppy-57">
          <mxGeometry relative="1" as="geometry">
            <mxPoint x="570" y="293" as="sourcePoint"/>
            <mxPoint x="298" y="293" as="targetPoint"/>
          </mxGeometry>
        </mxCell>
        <mxCell id="qk6un8bk32dUB89qjppy-68" value="sendNotificationDetails(data)" style="html=1;verticalAlign=bottom;endArrow=open;dashed=1;endSize=8;entryX=1.5;entryY=0.8;entryDx=0;entryDy=0;entryPerimeter=0;fontSize=11;" edge="1" parent="1">
          <mxGeometry relative="1" as="geometry">
            <mxPoint x="1030" y="376" as="sourcePoint"/>
            <mxPoint x="470" y="376" as="targetPoint"/>
          </mxGeometry>
        </mxCell>
        <mxCell id="qk6un8bk32dUB89qjppy-71" value="" style="html=1;verticalAlign=bottom;endArrow=open;dashed=1;endSize=8;fontSize=11;entryX=1.06;entryY=0.13;entryDx=0;entryDy=0;entryPerimeter=0;" edge="1" parent="1">
          <mxGeometry x="-0.0667" relative="1" as="geometry">
            <mxPoint x="453" y="375" as="sourcePoint"/>
            <mxPoint x="298.6" y="375.20000000000005" as="targetPoint"/>
            <mxPoint x="-1" as="offset"/>
          </mxGeometry>
        </mxCell>
        <mxCell id="qk6un8bk32dUB89qjppy-72" value="sendNotification(data)" style="text;html=1;align=center;verticalAlign=middle;resizable=0;points=[];;autosize=1;fontSize=11;" vertex="1" parent="1">
          <mxGeometry x="313" y="358" width="130" height="20" as="geometry"/>
        </mxCell>
        <mxCell id="qk6un8bk32dUB89qjppy-78" value="retriveNotificationDetails(ID)" style="html=1;verticalAlign=bottom;endArrow=block;fontSize=11;" edge="1" parent="1">
          <mxGeometry width="80" relative="1" as="geometry">
            <mxPoint x="1051" y="350.4999999999999" as="sourcePoint"/>
            <mxPoint x="1320" y="350" as="targetPoint"/>
          </mxGeometry>
        </mxCell>
        <mxCell id="qk6un8bk32dUB89qjppy-79" value="violationReceipt()" style="html=1;verticalAlign=bottom;endArrow=block;entryX=-0.272;entryY=0.407;entryDx=0;entryDy=0;entryPerimeter=0;fontSize=11;" edge="1" parent="1">
          <mxGeometry width="80" relative="1" as="geometry">
            <mxPoint x="117.99999999999977" y="419" as="sourcePoint"/>
            <mxPoint x="280.28" y="419.159" as="targetPoint"/>
          </mxGeometry>
        </mxCell>
        <mxCell id="qk6un8bk32dUB89qjppy-81" value="updateViolationHandlingHistory()" style="html=1;verticalAlign=bottom;endArrow=block;fontSize=11;" edge="1" parent="1">
          <mxGeometry width="80" relative="1" as="geometry">
            <mxPoint x="472" y="421" as="sourcePoint"/>
            <mxPoint x="1031" y="421" as="targetPoint"/>
          </mxGeometry>
        </mxCell>
        <mxCell id="qk6un8bk32dUB89qjppy-94" value="setAvailableStatus(false)" style="html=1;verticalAlign=bottom;endArrow=block;fontSize=11;" edge="1" parent="1">
          <mxGeometry width="80" relative="1" as="geometry">
            <mxPoint x="300" y="459" as="sourcePoint"/>
            <mxPoint x="454" y="459" as="targetPoint"/>
          </mxGeometry>
        </mxCell>
        <mxCell id="qk6un8bk32dUB89qjppy-95" value="setAvailableStatus(false)" style="html=1;verticalAlign=bottom;endArrow=block;fontSize=11;" edge="1" parent="1">
          <mxGeometry width="80" relative="1" as="geometry">
            <mxPoint x="472.5" y="461" as="sourcePoint"/>
            <mxPoint x="890" y="461" as="targetPoint"/>
          </mxGeometry>
        </mxCell>
        <mxCell id="qk6un8bk32dUB89qjppy-97" value="statusSetasUnavailable()" style="html=1;verticalAlign=bottom;endArrow=open;dashed=1;endSize=8;entryX=1.5;entryY=0.8;entryDx=0;entryDy=0;entryPerimeter=0;fontSize=11;" edge="1" parent="1">
          <mxGeometry relative="1" as="geometry">
            <mxPoint x="890" y="490" as="sourcePoint"/>
            <mxPoint x="470" y="490" as="targetPoint"/>
          </mxGeometry>
        </mxCell>
        <mxCell id="qk6un8bk32dUB89qjppy-98" value="showAMasUnavailable()" style="html=1;verticalAlign=bottom;endArrow=open;dashed=1;endSize=8;entryX=1.5;entryY=0.8;entryDx=0;entryDy=0;entryPerimeter=0;fontSize=11;exitX=-0.333;exitY=0.875;exitDx=0;exitDy=0;exitPerimeter=0;" edge="1" parent="1">
          <mxGeometry relative="1" as="geometry">
            <mxPoint x="453.6700000000001" y="490" as="sourcePoint"/>
            <mxPoint x="298" y="490" as="targetPoint"/>
          </mxGeometry>
        </mxCell>
        <mxCell id="qk6un8bk32dUB89qjppy-99" value="" style="html=1;points=[];perimeter=orthogonalPerimeter;rounded=0;shadow=0;comic=0;labelBackgroundColor=none;strokeWidth=1;fontFamily=Verdana;fontSize=11;align=center;" vertex="1" parent="1">
          <mxGeometry x="107" y="561.5" width="10" height="117" as="geometry"/>
        </mxCell>
        <mxCell id="qk6un8bk32dUB89qjppy-100" value="btnClkHandleViolation()" style="html=1;verticalAlign=bottom;endArrow=block;entryX=-0.272;entryY=0.407;entryDx=0;entryDy=0;entryPerimeter=0;fontSize=11;" edge="1" parent="1">
          <mxGeometry width="80" relative="1" as="geometry">
            <mxPoint x="117.99999999999966" y="570.0000000000001" as="sourcePoint"/>
            <mxPoint x="280.28" y="570.159" as="targetPoint"/>
          </mxGeometry>
        </mxCell>
        <mxCell id="qk6un8bk32dUB89qjppy-101" value="" style="html=1;points=[];perimeter=orthogonalPerimeter;rounded=0;shadow=0;comic=0;labelBackgroundColor=none;strokeWidth=1;fontFamily=Verdana;fontSize=11;align=center;" vertex="1" parent="1">
          <mxGeometry x="285" y="561.5" width="10" height="115" as="geometry"/>
        </mxCell>
        <mxCell id="qk6un8bk32dUB89qjppy-102" value="" style="html=1;points=[];perimeter=orthogonalPerimeter;rounded=0;shadow=0;comic=0;labelBackgroundColor=none;strokeWidth=1;fontFamily=Verdana;fontSize=11;align=center;" vertex="1" parent="1">
          <mxGeometry x="290" y="590" width="10" height="40" as="geometry"/>
        </mxCell>
        <mxCell id="qk6un8bk32dUB89qjppy-105" value="violationReceipt()" style="html=1;verticalAlign=bottom;endArrow=block;fontSize=11;" edge="1" parent="1">
          <mxGeometry width="80" relative="1" as="geometry">
            <mxPoint x="299" y="421" as="sourcePoint"/>
            <mxPoint x="453" y="421" as="targetPoint"/>
          </mxGeometry>
        </mxCell>
        <mxCell id="qk6un8bk32dUB89qjppy-106" value="showViolationForm()" style="html=1;verticalAlign=bottom;endArrow=block;fontSize=11;exitX=0.969;exitY=0.116;exitDx=0;exitDy=0;exitPerimeter=0;" edge="1" parent="1" source="qk6un8bk32dUB89qjppy-101">
          <mxGeometry x="-0.133" y="50" width="80" relative="1" as="geometry">
            <mxPoint x="295" y="570" as="sourcePoint"/>
            <mxPoint x="304" y="610" as="targetPoint"/>
            <Array as="points">
              <mxPoint x="330" y="580"/>
              <mxPoint x="330" y="598"/>
            </Array>
            <mxPoint as="offset"/>
          </mxGeometry>
        </mxCell>
        <mxCell id="qk6un8bk32dUB89qjppy-107" value="submitViolationForm()" style="html=1;verticalAlign=bottom;endArrow=block;entryX=-0.272;entryY=0.407;entryDx=0;entryDy=0;entryPerimeter=0;fontSize=11;" edge="1" parent="1">
          <mxGeometry width="80" relative="1" as="geometry">
            <mxPoint x="117.99999999999966" y="651" as="sourcePoint"/>
            <mxPoint x="280.28" y="651.1590000000001" as="targetPoint"/>
          </mxGeometry>
        </mxCell>
        <mxCell id="qk6un8bk32dUB89qjppy-108" value="storeViolationDetail(data)" style="html=1;verticalAlign=bottom;endArrow=block;fontSize=11;" edge="1" parent="1">
          <mxGeometry width="80" relative="1" as="geometry">
            <mxPoint x="300" y="651" as="sourcePoint"/>
            <mxPoint x="453.9999999999998" y="651" as="targetPoint"/>
          </mxGeometry>
        </mxCell>
        <mxCell id="qk6un8bk32dUB89qjppy-111" value="&lt;div&gt;notificationBecamesVIolation(data)&lt;/div&gt;" style="html=1;verticalAlign=bottom;endArrow=block;fontSize=11;" edge="1" parent="1">
          <mxGeometry width="80" relative="1" as="geometry">
            <mxPoint x="472.5000000000002" y="651" as="sourcePoint"/>
            <mxPoint x="1031.5" y="651" as="targetPoint"/>
          </mxGeometry>
        </mxCell>
        <mxCell id="qk6un8bk32dUB89qjppy-115" value="updateViolationHandlingHistory()" style="html=1;verticalAlign=bottom;endArrow=block;fontSize=11;" edge="1" parent="1">
          <mxGeometry width="80" relative="1" as="geometry">
            <mxPoint x="470" y="872" as="sourcePoint"/>
            <mxPoint x="1178" y="872" as="targetPoint"/>
          </mxGeometry>
        </mxCell>
        <mxCell id="qk6un8bk32dUB89qjppy-122" value="DBMS" style="shape=umlLifeline;perimeter=lifelinePerimeter;whiteSpace=wrap;html=1;container=1;collapsible=0;recursiveResize=0;outlineConnect=0;rounded=1;shadow=0;comic=0;labelBackgroundColor=none;strokeWidth=1;fontFamily=Verdana;fontSize=11;align=center;" vertex="1" parent="1">
          <mxGeometry x="1280" y="80" width="100" height="1000" as="geometry"/>
        </mxCell>
        <mxCell id="qk6un8bk32dUB89qjppy-123" value="" style="html=1;points=[];perimeter=orthogonalPerimeter;rounded=0;shadow=0;comic=0;labelBackgroundColor=none;strokeColor=#000000;strokeWidth=1;fillColor=#FFFFFF;fontFamily=Verdana;fontSize=11;fontColor=#000000;align=center;" vertex="1" parent="qk6un8bk32dUB89qjppy-122">
          <mxGeometry x="46" y="690" width="10" height="110" as="geometry"/>
        </mxCell>
        <mxCell id="qk6un8bk32dUB89qjppy-124" value="includeIntoStatistics()" style="html=1;verticalAlign=bottom;endArrow=block;fontSize=11;" edge="1" parent="qk6un8bk32dUB89qjppy-122">
          <mxGeometry width="80" relative="1" as="geometry">
            <mxPoint x="-83" y="840" as="sourcePoint"/>
            <mxPoint x="180" y="840" as="targetPoint"/>
          </mxGeometry>
        </mxCell>
        <mxCell id="qk6un8bk32dUB89qjppy-125" value="" style="html=1;points=[];perimeter=orthogonalPerimeter;rounded=0;shadow=0;comic=0;labelBackgroundColor=none;strokeWidth=1;fontFamily=Verdana;fontSize=11;align=center;" vertex="1" parent="qk6un8bk32dUB89qjppy-122">
          <mxGeometry x="45" y="263" width="10" height="85" as="geometry"/>
        </mxCell>
        <mxCell id="qk6un8bk32dUB89qjppy-149" value="" style="html=1;points=[];perimeter=orthogonalPerimeter;rounded=0;shadow=0;comic=0;labelBackgroundColor=none;strokeWidth=1;fontFamily=Verdana;fontSize=11;align=center;" vertex="1" parent="qk6un8bk32dUB89qjppy-122">
          <mxGeometry x="45" y="860" width="10" height="20" as="geometry"/>
        </mxCell>
        <mxCell id="qk6un8bk32dUB89qjppy-77" value="sendDetails(data)" style="html=1;verticalAlign=bottom;endArrow=open;dashed=1;endSize=8;labelBackgroundColor=none;fontFamily=Verdana;fontSize=11;edgeStyle=elbowEdgeStyle;elbow=vertical;" edge="1" parent="1">
          <mxGeometry relative="1" as="geometry">
            <mxPoint x="1050" y="376.5" as="targetPoint"/>
            <Array as="points">
              <mxPoint x="1125" y="376.5"/>
              <mxPoint x="1155" y="376.5"/>
            </Array>
            <mxPoint x="1320" y="377" as="sourcePoint"/>
          </mxGeometry>
        </mxCell>
        <mxCell id="qk6un8bk32dUB89qjppy-86" value="updateViolationHandlingHistory()" style="html=1;verticalAlign=bottom;endArrow=block;fontSize=11;" edge="1" parent="1">
          <mxGeometry width="80" relative="1" as="geometry">
            <mxPoint x="1050" y="421" as="sourcePoint"/>
            <mxPoint x="1320" y="421" as="targetPoint"/>
          </mxGeometry>
        </mxCell>
        <mxCell id="qk6un8bk32dUB89qjppy-132" value="" style="html=1;points=[];perimeter=orthogonalPerimeter;rounded=0;shadow=0;comic=0;labelBackgroundColor=none;strokeWidth=1;fontFamily=Verdana;fontSize=11;align=center;" vertex="1" parent="1">
          <mxGeometry x="1188" y="719" width="10" height="40" as="geometry"/>
        </mxCell>
        <mxCell id="qk6un8bk32dUB89qjppy-133" value="addMetadata()" style="html=1;verticalAlign=bottom;endArrow=block;labelBackgroundColor=none;fontFamily=Verdana;fontSize=11;elbow=vertical;edgeStyle=orthogonalEdgeStyle;curved=1;entryX=1;entryY=0.286;entryPerimeter=0;exitX=1.038;exitY=0.345;exitPerimeter=0;" edge="1" parent="1">
          <mxGeometry x="0.1067" y="47" relative="1" as="geometry">
            <mxPoint x="1193.9411764705883" y="701.7647058823529" as="sourcePoint"/>
            <mxPoint x="1198.6470588235293" y="738.2352941176471" as="targetPoint"/>
            <Array as="points">
              <mxPoint x="1218" y="700"/>
              <mxPoint x="1218" y="738"/>
            </Array>
            <mxPoint as="offset"/>
          </mxGeometry>
        </mxCell>
        <mxCell id="qk6un8bk32dUB89qjppy-134" value="storeViolationDetail(data)" style="html=1;verticalAlign=bottom;endArrow=block;fontSize=11;" edge="1" parent="1">
          <mxGeometry width="80" relative="1" as="geometry">
            <mxPoint x="1196" y="778.9999999999998" as="sourcePoint"/>
            <mxPoint x="1326" y="778.9999999999998" as="targetPoint"/>
          </mxGeometry>
        </mxCell>
        <mxCell id="qk6un8bk32dUB89qjppy-135" value="updateViolationHistory(ID)" style="html=1;verticalAlign=bottom;endArrow=block;fontSize=11;" edge="1" parent="1">
          <mxGeometry width="80" relative="1" as="geometry">
            <mxPoint x="1195" y="872" as="sourcePoint"/>
            <mxPoint x="1325" y="872" as="targetPoint"/>
          </mxGeometry>
        </mxCell>
        <mxCell id="qk6un8bk32dUB89qjppy-136" value="sendDetails(ID)" style="html=1;verticalAlign=bottom;endArrow=open;dashed=1;endSize=8;labelBackgroundColor=none;fontFamily=Verdana;fontSize=11;edgeStyle=elbowEdgeStyle;elbow=vertical;" edge="1" parent="1">
          <mxGeometry relative="1" as="geometry">
            <mxPoint x="1196" y="835.9999999999998" as="targetPoint"/>
            <Array as="points">
              <mxPoint x="1271" y="836"/>
              <mxPoint x="1301" y="836"/>
            </Array>
            <mxPoint x="1324" y="836.5" as="sourcePoint"/>
          </mxGeometry>
        </mxCell>
        <mxCell id="qk6un8bk32dUB89qjppy-137" value="" style="html=1;points=[];perimeter=orthogonalPerimeter;rounded=0;shadow=0;comic=0;labelBackgroundColor=none;strokeWidth=1;fontFamily=Verdana;fontSize=11;align=center;" vertex="1" parent="1">
          <mxGeometry x="1325" y="640" width="10" height="20" as="geometry"/>
        </mxCell>
        <mxCell id="qk6un8bk32dUB89qjppy-138" value="&lt;div&gt;notificationBecamesVIolation(query)&lt;/div&gt;" style="html=1;verticalAlign=bottom;endArrow=block;fontSize=11;" edge="1" parent="1">
          <mxGeometry width="80" relative="1" as="geometry">
            <mxPoint x="1049" y="651" as="sourcePoint"/>
            <mxPoint x="1324.0000000000002" y="651" as="targetPoint"/>
          </mxGeometry>
        </mxCell>
        <mxCell id="qk6un8bk32dUB89qjppy-144" value="storeViolationDetail(data)" style="html=1;verticalAlign=bottom;endArrow=block;fontSize=11;" edge="1" parent="1">
          <mxGeometry width="80" relative="1" as="geometry">
            <mxPoint x="473" y="696" as="sourcePoint"/>
            <mxPoint x="1030" y="696" as="targetPoint"/>
          </mxGeometry>
        </mxCell>
        <mxCell id="qk6un8bk32dUB89qjppy-145" value="storeViolationDetail(data)" style="html=1;verticalAlign=bottom;endArrow=block;fontSize=11;" edge="1" parent="1">
          <mxGeometry width="80" relative="1" as="geometry">
            <mxPoint x="1051" y="696" as="sourcePoint"/>
            <mxPoint x="1180" y="696" as="targetPoint"/>
          </mxGeometry>
        </mxCell>
        <mxCell id="qk6un8bk32dUB89qjppy-146" value="sendDetails(ID)" style="html=1;verticalAlign=bottom;endArrow=open;dashed=1;endSize=8;labelBackgroundColor=none;fontFamily=Verdana;fontSize=11;edgeStyle=elbowEdgeStyle;elbow=vertical;" edge="1" parent="1">
          <mxGeometry relative="1" as="geometry">
            <mxPoint x="470" y="835" as="targetPoint"/>
            <Array as="points">
              <mxPoint x="1125" y="835"/>
              <mxPoint x="1155" y="835"/>
            </Array>
            <mxPoint x="1178" y="835.5" as="sourcePoint"/>
          </mxGeometry>
        </mxCell>
        <mxCell id="qk6un8bk32dUB89qjppy-120" value="includeIntoStatistics()" style="html=1;verticalAlign=bottom;endArrow=block;fontSize=11;" edge="1" parent="1">
          <mxGeometry width="80" relative="1" as="geometry">
            <mxPoint x="470" y="920" as="sourcePoint"/>
            <mxPoint x="1180" y="920" as="targetPoint"/>
          </mxGeometry>
        </mxCell>
        <mxCell id="qk6un8bk32dUB89qjppy-150" value="" style="html=1;points=[];perimeter=orthogonalPerimeter;rounded=0;shadow=0;comic=0;labelBackgroundColor=none;strokeWidth=1;fontFamily=Verdana;fontSize=11;align=center;" vertex="1" parent="1">
          <mxGeometry x="1182" y="915" width="10" height="20" as="geometry"/>
        </mxCell>
        <mxCell id="qk6un8bk32dUB89qjppy-161" value="notAViolation()" style="html=1;verticalAlign=bottom;endArrow=block;fontSize=11;" edge="1" parent="1">
          <mxGeometry width="80" relative="1" as="geometry">
            <mxPoint x="299" y="1009" as="sourcePoint"/>
            <mxPoint x="454" y="1009" as="targetPoint"/>
          </mxGeometry>
        </mxCell>
        <mxCell id="qk6un8bk32dUB89qjppy-164" value="" style="html=1;points=[];perimeter=orthogonalPerimeter;rounded=0;shadow=0;comic=0;labelBackgroundColor=none;strokeWidth=1;fontFamily=Verdana;fontSize=11;align=center;direction=west;" vertex="1" parent="1">
          <mxGeometry x="457" y="997" width="10" height="25" as="geometry"/>
        </mxCell>
        <mxCell id="qk6un8bk32dUB89qjppy-165" value="notAViolation()" style="html=1;verticalAlign=bottom;endArrow=block;fontSize=11;" edge="1" parent="1">
          <mxGeometry width="80" relative="1" as="geometry">
            <mxPoint x="472" y="1009" as="sourcePoint"/>
            <mxPoint x="1032" y="1009" as="targetPoint"/>
          </mxGeometry>
        </mxCell>
        <mxCell id="qk6un8bk32dUB89qjppy-167" value="" style="html=1;points=[];perimeter=orthogonalPerimeter;rounded=0;shadow=0;comic=0;labelBackgroundColor=none;strokeWidth=1;fontFamily=Verdana;fontSize=11;align=center;direction=west;" vertex="1" parent="1">
          <mxGeometry x="1037" y="998" width="10" height="25" as="geometry"/>
        </mxCell>
        <mxCell id="qk6un8bk32dUB89qjppy-168" value="notAViolation()" style="html=1;verticalAlign=bottom;endArrow=block;fontSize=11;" edge="1" parent="1">
          <mxGeometry width="80" relative="1" as="geometry">
            <mxPoint x="1050" y="1009.9999999999998" as="sourcePoint"/>
            <mxPoint x="1610" y="1009.9999999999998" as="targetPoint"/>
          </mxGeometry>
        </mxCell>
      </root>
    </mxGraphModel>
  </diagram>
</mxfile>
